# xmcd
#
# Track frame offsets:
#	150
#	18936
#	37359
#	53858
#	68616
#	84029
#	98502
#	115073
#	129856
#	143346
#	165025
#
# Disc length: 2396 seconds
#
# Revision: 2
# Processed by: cddbd v1.5.2PL0 Copyright (c) Steve Scherf et al.
# Submitted via: audiograbber 1.83.01
#
DISCID=73095a0b
DTITLE=Various Artist - CDX 528
DYEAR=2011
DGENRE=Country
TTITLE0=LeAnn Rimes - Give
TTITLE1=Ronnie Milsap - If You Don't Want Me To (The Freeze)
TTITLE2=Buddy Jewell - Jesus, Elvis and Me
TTITLE3=Ashton Shepherd - Where Country Grows 
TTITLE4=Montgomery Gentry - Where I Come From
TTITLE5=Joanna Mosca ft. Richie McDonald - Where Does Good Love Go 
TTITLE6=Larry Chance - I'll Be Coming Home
TTITLE7=Amy Ames - No Beer Here 
TTITLE8=Andy Budd - Ragtop Mercury 
TTITLE9=Jason and The Haymakers - She Rides Horses 
TTITLE10=Brady, Stewart, Green and Young - Too Deep Of Water
EXTD=
EXTT0=
EXTT1=
EXTT2=
EXTT3=
EXTT4=
EXTT5=
EXTT6=
EXTT7=
EXTT8=
EXTT9=
EXTT10=
PLAYORDER=
